<?xml version="1.0" encoding="UTF-8" standalone="no"?>
<!-- Created with Inkscape (http://www.inkscape.org/) -->
<svg
   xmlns:dc="http://purl.org/dc/elements/1.1/"
   xmlns:cc="http://creativecommons.org/ns#"
   xmlns:rdf="http://www.w3.org/1999/02/22-rdf-syntax-ns#"
   xmlns:svg="http://www.w3.org/2000/svg"
   xmlns="http://www.w3.org/2000/svg"
   xmlns:xlink="http://www.w3.org/1999/xlink"
   xmlns:sodipodi="http://sodipodi.sourceforge.net/DTD/sodipodi-0.dtd"
   xmlns:inkscape="http://www.inkscape.org/namespaces/inkscape"
   id="svg2561"
   sodipodi:version="0.32"
   inkscape:version="0.46"
   width="239"
   height="132"
   version="1.0"
   sodipodi:docname="icons.svg"
   inkscape:output_extension="org.inkscape.output.svg.inkscape">
  <metadata
     id="metadata2566">
    <rdf:RDF>
      <cc:Work
         rdf:about="">
        <dc:format>image/svg+xml</dc:format>
        <dc:type
           rdf:resource="http://purl.org/dc/dcmitype/StillImage" />
      </cc:Work>
    </rdf:RDF>
  </metadata>
  <defs
     id="defs2564">
    <linearGradient
       inkscape:collect="always"
       id="linearGradient6742">
      <stop
         style="stop-color:#070a1f;stop-opacity:1;"
         offset="0"
         id="stop6744" />
      <stop
         style="stop-color:#070a1f;stop-opacity:0;"
         offset="1"
         id="stop6746" />
    </linearGradient>
    <linearGradient
       inkscape:collect="always"
       id="linearGradient3956">
      <stop
         style="stop-color:#a40000;stop-opacity:1;"
         offset="0"
         id="stop3958" />
      <stop
         style="stop-color:#a40000;stop-opacity:0;"
         offset="1"
         id="stop3960" />
    </linearGradient>
    <linearGradient
       inkscape:collect="always"
       id="linearGradient3948">
      <stop
         style="stop-color:#204a87;stop-opacity:1;"
         offset="0"
         id="stop3950" />
      <stop
         style="stop-color:#204a87;stop-opacity:0;"
         offset="1"
         id="stop3952" />
    </linearGradient>
    <linearGradient
       inkscape:collect="always"
       id="linearGradient3546">
      <stop
         style="stop-color:#204a87;stop-opacity:1;"
         offset="0"
         id="stop3548" />
      <stop
         style="stop-color:#204a87;stop-opacity:0;"
         offset="1"
         id="stop3550" />
    </linearGradient>
    <linearGradient
       inkscape:collect="always"
       id="linearGradient3514">
      <stop
         style="stop-color:#a40000;stop-opacity:1;"
         offset="0"
         id="stop3516" />
      <stop
         style="stop-color:#a40000;stop-opacity:0;"
         offset="1"
         id="stop3518" />
    </linearGradient>
    <inkscape:perspective
       sodipodi:type="inkscape:persp3d"
       inkscape:vp_x="0 : 526.18109 : 1"
       inkscape:vp_y="0 : 1000 : 0"
       inkscape:vp_z="744.09448 : 526.18109 : 1"
       inkscape:persp3d-origin="372.04724 : 350.78739 : 1"
       id="perspective2568" />
    <linearGradient
       inkscape:collect="always"
       xlink:href="#linearGradient3514"
       id="linearGradient3520"
       x1="15.464063"
       y1="62.488056"
       x2="66.464068"
       y2="62.488056"
       gradientUnits="userSpaceOnUse"
       gradientTransform="matrix(1.183135,0,0,1.4387544,-2.9235782,-34.112003)" />
    <linearGradient
       inkscape:collect="always"
       xlink:href="#linearGradient3546"
       id="linearGradient3552"
       x1="52.092865"
       y1="62.581375"
       x2="19.409622"
       y2="62.581375"
       gradientUnits="userSpaceOnUse"
       gradientTransform="matrix(1.183135,0,0,1.4387544,-2.9235782,-34.291848)" />
    <linearGradient
       inkscape:collect="always"
       xlink:href="#linearGradient3948"
       id="linearGradient3954"
       x1="69.814262"
       y1="105.26144"
       x2="15.616515"
       y2="105.26144"
       gradientUnits="userSpaceOnUse" />
    <linearGradient
       inkscape:collect="always"
       xlink:href="#linearGradient3956"
       id="linearGradient3962"
       x1="41.265479"
       y1="99.775092"
       x2="101.26548"
       y2="99.775092"
       gradientUnits="userSpaceOnUse"
       gradientTransform="translate(-23.009776,5.9068543)" />
    <linearGradient
       inkscape:collect="always"
       xlink:href="#linearGradient6742"
       id="linearGradient6748"
       x1="-39.25"
       y1="88.5"
       x2="-41"
       y2="88.5"
       gradientUnits="userSpaceOnUse" />
    <linearGradient
       inkscape:collect="always"
       xlink:href="#linearGradient6742"
       id="linearGradient6756"
       x1="-39.25"
       y1="88.5"
       x2="-41"
       y2="88.5"
       gradientUnits="userSpaceOnUse" />
    <linearGradient
       inkscape:collect="always"
       xlink:href="#linearGradient6742"
       id="linearGradient6764"
       x1="-39.25"
       y1="88.5"
       x2="-41"
       y2="88.5"
       gradientUnits="userSpaceOnUse" />
    <linearGradient
       inkscape:collect="always"
       xlink:href="#linearGradient6742"
       id="linearGradient6772"
       x1="-39.25"
       y1="88.5"
       x2="-41"
       y2="88.5"
       gradientUnits="userSpaceOnUse" />
    <linearGradient
       inkscape:collect="always"
       xlink:href="#linearGradient6742"
       id="linearGradient6780"
       x1="-39.25"
       y1="88.5"
       x2="-41"
       y2="88.5"
       gradientUnits="userSpaceOnUse" />
    <linearGradient
       inkscape:collect="always"
       xlink:href="#linearGradient6742"
       id="linearGradient6788"
       x1="-39.25"
       y1="88.5"
       x2="-41"
       y2="88.5"
       gradientUnits="userSpaceOnUse" />
    <linearGradient
       inkscape:collect="always"
       xlink:href="#linearGradient6742"
       id="linearGradient6796"
       x1="-39.25"
       y1="88.5"
       x2="-41"
       y2="88.5"
       gradientUnits="userSpaceOnUse" />
    <linearGradient
       inkscape:collect="always"
       xlink:href="#linearGradient6742"
       id="linearGradient6804"
       x1="-39.25"
       y1="88.5"
       x2="-41"
       y2="88.5"
       gradientUnits="userSpaceOnUse" />
    <linearGradient
       inkscape:collect="always"
       xlink:href="#linearGradient6742"
       id="linearGradient6812"
       x1="-39.25"
       y1="88.5"
       x2="-41"
       y2="88.5"
       gradientUnits="userSpaceOnUse" />
    <linearGradient
       inkscape:collect="always"
       xlink:href="#linearGradient6742"
       id="linearGradient6820"
       x1="-39.25"
       y1="88.5"
       x2="-41"
       y2="88.5"
       gradientUnits="userSpaceOnUse" />
    <linearGradient
       inkscape:collect="always"
       xlink:href="#linearGradient6742"
       id="linearGradient6828"
       x1="-39.25"
       y1="88.5"
       x2="-41"
       y2="88.5"
       gradientUnits="userSpaceOnUse" />
    <linearGradient
       inkscape:collect="always"
       xlink:href="#linearGradient6742"
       id="linearGradient6836"
       x1="-39.25"
       y1="88.5"
       x2="-41"
       y2="88.5"
       gradientUnits="userSpaceOnUse" />
    <linearGradient
       inkscape:collect="always"
       xlink:href="#linearGradient6742"
       id="linearGradient6844"
       x1="-39.25"
       y1="88.5"
       x2="-41"
       y2="88.5"
       gradientUnits="userSpaceOnUse" />
    <linearGradient
       inkscape:collect="always"
       xlink:href="#linearGradient6742"
       id="linearGradient6852"
       x1="-39.25"
       y1="88.5"
       x2="-41"
       y2="88.5"
       gradientUnits="userSpaceOnUse" />
    <linearGradient
       inkscape:collect="always"
       xlink:href="#linearGradient6742"
       id="linearGradient6860"
       x1="-39.25"
       y1="88.5"
       x2="-41"
       y2="88.5"
       gradientUnits="userSpaceOnUse" />
    <linearGradient
       inkscape:collect="always"
       xlink:href="#linearGradient6742"
       id="linearGradient6868"
       x1="-39.25"
       y1="88.5"
       x2="-41"
       y2="88.5"
       gradientUnits="userSpaceOnUse" />
    <linearGradient
       inkscape:collect="always"
       xlink:href="#linearGradient6742"
       id="linearGradient6876"
       x1="-39.25"
       y1="88.5"
       x2="-41"
       y2="88.5"
       gradientUnits="userSpaceOnUse" />
    <linearGradient
       inkscape:collect="always"
       xlink:href="#linearGradient6742"
       id="linearGradient6884"
       x1="-39.25"
       y1="88.5"
       x2="-41"
       y2="88.5"
       gradientUnits="userSpaceOnUse" />
    <linearGradient
       inkscape:collect="always"
       xlink:href="#linearGradient6742"
       id="linearGradient6892"
       x1="-39.25"
       y1="88.5"
       x2="-41"
       y2="88.5"
       gradientUnits="userSpaceOnUse" />
    <linearGradient
       inkscape:collect="always"
       xlink:href="#linearGradient6742"
       id="linearGradient6900"
       x1="-39.25"
       y1="88.5"
       x2="-41"
       y2="88.5"
       gradientUnits="userSpaceOnUse" />
    <linearGradient
       inkscape:collect="always"
       xlink:href="#linearGradient6742"
       id="linearGradient6908"
       x1="-39.25"
       y1="88.5"
       x2="-41"
       y2="88.5"
       gradientUnits="userSpaceOnUse" />
    <linearGradient
       inkscape:collect="always"
       xlink:href="#linearGradient6742"
       id="linearGradient6916"
       x1="-39.25"
       y1="88.5"
       x2="-41"
       y2="88.5"
       gradientUnits="userSpaceOnUse" />
    <linearGradient
       inkscape:collect="always"
       xlink:href="#linearGradient6742"
       id="linearGradient6924"
       x1="-39.25"
       y1="88.5"
       x2="-41"
       y2="88.5"
       gradientUnits="userSpaceOnUse" />
    <linearGradient
       inkscape:collect="always"
       xlink:href="#linearGradient6742"
       id="linearGradient6932"
       x1="-39.25"
       y1="88.5"
       x2="-41"
       y2="88.5"
       gradientUnits="userSpaceOnUse" />
    <linearGradient
       inkscape:collect="always"
       xlink:href="#linearGradient6742"
       id="linearGradient6940"
       x1="-39.25"
       y1="88.5"
       x2="-41"
       y2="88.5"
       gradientUnits="userSpaceOnUse" />
    <linearGradient
       inkscape:collect="always"
       xlink:href="#linearGradient6742"
       id="linearGradient6948"
       x1="-39.25"
       y1="88.5"
       x2="-41"
       y2="88.5"
       gradientUnits="userSpaceOnUse" />
    <linearGradient
       inkscape:collect="always"
       xlink:href="#linearGradient6742"
       id="linearGradient6956"
       x1="-39.25"
       y1="88.5"
       x2="-41"
       y2="88.5"
       gradientUnits="userSpaceOnUse" />
    <linearGradient
       inkscape:collect="always"
       xlink:href="#linearGradient6742"
       id="linearGradient6964"
       x1="-39.25"
       y1="88.5"
       x2="-41"
       y2="88.5"
       gradientUnits="userSpaceOnUse" />
    <linearGradient
       inkscape:collect="always"
       xlink:href="#linearGradient6742"
       id="linearGradient6972"
       x1="-39.25"
       y1="88.5"
       x2="-41"
       y2="88.5"
       gradientUnits="userSpaceOnUse" />
    <linearGradient
       inkscape:collect="always"
       xlink:href="#linearGradient6742"
       id="linearGradient6980"
       x1="-39.25"
       y1="88.5"
       x2="-41"
       y2="88.5"
       gradientUnits="userSpaceOnUse" />
    <linearGradient
       inkscape:collect="always"
       xlink:href="#linearGradient6742"
       id="linearGradient6988"
       x1="-39.25"
       y1="88.5"
       x2="-41"
       y2="88.5"
       gradientUnits="userSpaceOnUse" />
    <linearGradient
       inkscape:collect="always"
       xlink:href="#linearGradient6742"
       id="linearGradient6996"
       x1="-39.25"
       y1="88.5"
       x2="-41"
       y2="88.5"
       gradientUnits="userSpaceOnUse" />
    <linearGradient
       inkscape:collect="always"
       xlink:href="#linearGradient6742"
       id="linearGradient7004"
       x1="-39.25"
       y1="88.5"
       x2="-41"
       y2="88.5"
       gradientUnits="userSpaceOnUse" />
    <linearGradient
       inkscape:collect="always"
       xlink:href="#linearGradient6742"
       id="linearGradient7012"
       x1="-39.25"
       y1="88.5"
       x2="-41"
       y2="88.5"
       gradientUnits="userSpaceOnUse" />
    <linearGradient
       inkscape:collect="always"
       xlink:href="#linearGradient6742"
       id="linearGradient7020"
       x1="-39.25"
       y1="88.5"
       x2="-41"
       y2="88.5"
       gradientUnits="userSpaceOnUse" />
    <linearGradient
       inkscape:collect="always"
       xlink:href="#linearGradient6742"
       id="linearGradient7028"
       x1="-39.25"
       y1="88.5"
       x2="-41"
       y2="88.5"
       gradientUnits="userSpaceOnUse" />
    <linearGradient
       inkscape:collect="always"
       xlink:href="#linearGradient6742"
       id="linearGradient7036"
       x1="-39.25"
       y1="88.5"
       x2="-41"
       y2="88.5"
       gradientUnits="userSpaceOnUse" />
    <linearGradient
       inkscape:collect="always"
       xlink:href="#linearGradient6742"
       id="linearGradient7044"
       x1="-39.25"
       y1="88.5"
       x2="-41"
       y2="88.5"
       gradientUnits="userSpaceOnUse" />
    <linearGradient
       inkscape:collect="always"
       xlink:href="#linearGradient6742"
       id="linearGradient7052"
       x1="-39.25"
       y1="88.5"
       x2="-41"
       y2="88.5"
       gradientUnits="userSpaceOnUse" />
    <linearGradient
       inkscape:collect="always"
       xlink:href="#linearGradient6742"
       id="linearGradient7060"
       x1="-39.25"
       y1="88.5"
       x2="-41"
       y2="88.5"
       gradientUnits="userSpaceOnUse" />
    <linearGradient
       inkscape:collect="always"
       xlink:href="#linearGradient6742"
       id="linearGradient7068"
       x1="-39.25"
       y1="88.5"
       x2="-41"
       y2="88.5"
       gradientUnits="userSpaceOnUse" />
    <linearGradient
       inkscape:collect="always"
       xlink:href="#linearGradient6742"
       id="linearGradient7076"
       x1="-39.25"
       y1="88.5"
       x2="-41"
       y2="88.5"
       gradientUnits="userSpaceOnUse" />
    <linearGradient
       inkscape:collect="always"
       xlink:href="#linearGradient6742"
       id="linearGradient7084"
       x1="-39.25"
       y1="88.5"
       x2="-41"
       y2="88.5"
       gradientUnits="userSpaceOnUse" />
    <linearGradient
       inkscape:collect="always"
       xlink:href="#linearGradient6742"
       id="linearGradient7092"
       x1="-39.25"
       y1="88.5"
       x2="-41"
       y2="88.5"
       gradientUnits="userSpaceOnUse" />
    <linearGradient
       inkscape:collect="always"
       xlink:href="#linearGradient6742"
       id="linearGradient7100"
       x1="-39.25"
       y1="88.5"
       x2="-41"
       y2="88.5"
       gradientUnits="userSpaceOnUse" />
    <linearGradient
       inkscape:collect="always"
       xlink:href="#linearGradient6742"
       id="linearGradient7108"
       x1="-39.25"
       y1="88.5"
       x2="-41"
       y2="88.5"
       gradientUnits="userSpaceOnUse" />
    <linearGradient
       inkscape:collect="always"
       xlink:href="#linearGradient6742"
       id="linearGradient7116"
       x1="-39.25"
       y1="88.5"
       x2="-41"
       y2="88.5"
       gradientUnits="userSpaceOnUse" />
    <linearGradient
       inkscape:collect="always"
       xlink:href="#linearGradient6742"
       id="linearGradient7124"
       x1="-39.25"
       y1="88.5"
       x2="-41"
       y2="88.5"
       gradientUnits="userSpaceOnUse" />
    <linearGradient
       inkscape:collect="always"
       xlink:href="#linearGradient6742"
       id="linearGradient7132"
       x1="-39.25"
       y1="88.5"
       x2="-41"
       y2="88.5"
       gradientUnits="userSpaceOnUse" />
    <linearGradient
       inkscape:collect="always"
       xlink:href="#linearGradient6742"
       id="linearGradient7140"
       x1="-39.25"
       y1="88.5"
       x2="-41"
       y2="88.5"
       gradientUnits="userSpaceOnUse" />
    <linearGradient
       inkscape:collect="always"
       xlink:href="#linearGradient6742"
       id="linearGradient7148"
       x1="-39.25"
       y1="88.5"
       x2="-41"
       y2="88.5"
       gradientUnits="userSpaceOnUse" />
    <linearGradient
       inkscape:collect="always"
       xlink:href="#linearGradient6742"
       id="linearGradient7156"
       x1="-39.25"
       y1="88.5"
       x2="-41"
       y2="88.5"
       gradientUnits="userSpaceOnUse" />
    <linearGradient
       inkscape:collect="always"
       xlink:href="#linearGradient6742"
       id="linearGradient7164"
       x1="-39.25"
       y1="88.5"
       x2="-41"
       y2="88.5"
       gradientUnits="userSpaceOnUse" />
    <linearGradient
       inkscape:collect="always"
       xlink:href="#linearGradient6742"
       id="linearGradient7172"
       x1="-39.25"
       y1="88.5"
       x2="-41"
       y2="88.5"
       gradientUnits="userSpaceOnUse" />
    <linearGradient
       inkscape:collect="always"
       xlink:href="#linearGradient6742"
       id="linearGradient7180"
       x1="-39.25"
       y1="88.5"
       x2="-41"
       y2="88.5"
       gradientUnits="userSpaceOnUse" />
    <linearGradient
       inkscape:collect="always"
       xlink:href="#linearGradient6742"
       id="linearGradient7188"
       x1="-39.25"
       y1="88.5"
       x2="-41"
       y2="88.5"
       gradientUnits="userSpaceOnUse" />
    <linearGradient
       inkscape:collect="always"
       xlink:href="#linearGradient6742"
       id="linearGradient7196"
       x1="-39.25"
       y1="88.5"
       x2="-41"
       y2="88.5"
       gradientUnits="userSpaceOnUse" />
    <linearGradient
       inkscape:collect="always"
       xlink:href="#linearGradient6742"
       id="linearGradient7204"
       x1="-39.25"
       y1="88.5"
       x2="-41"
       y2="88.5"
       gradientUnits="userSpaceOnUse" />
    <linearGradient
       inkscape:collect="always"
       xlink:href="#linearGradient6742"
       id="linearGradient7212"
       x1="-39.25"
       y1="88.5"
       x2="-41"
       y2="88.5"
       gradientUnits="userSpaceOnUse" />
    <linearGradient
       inkscape:collect="always"
       xlink:href="#linearGradient6742"
       id="linearGradient7220"
       x1="-39.25"
       y1="88.5"
       x2="-41"
       y2="88.5"
       gradientUnits="userSpaceOnUse" />
    <linearGradient
       inkscape:collect="always"
       xlink:href="#linearGradient6742"
       id="linearGradient7228"
       x1="-39.25"
       y1="88.5"
       x2="-41"
       y2="88.5"
       gradientUnits="userSpaceOnUse" />
    <linearGradient
       inkscape:collect="always"
       xlink:href="#linearGradient6742"
       id="linearGradient7236"
       x1="-39.25"
       y1="88.5"
       x2="-41"
       y2="88.5"
       gradientUnits="userSpaceOnUse" />
    <linearGradient
       inkscape:collect="always"
       xlink:href="#linearGradient6742"
       id="linearGradient7244"
       x1="-39.25"
       y1="88.5"
       x2="-41"
       y2="88.5"
       gradientUnits="userSpaceOnUse" />
    <linearGradient
       inkscape:collect="always"
       xlink:href="#linearGradient6742"
       id="linearGradient7252"
       x1="-39.25"
       y1="88.5"
       x2="-41"
       y2="88.5"
       gradientUnits="userSpaceOnUse" />
    <linearGradient
       inkscape:collect="always"
       xlink:href="#linearGradient6742"
       id="linearGradient7260"
       x1="-39.25"
       y1="88.5"
       x2="-41"
       y2="88.5"
       gradientUnits="userSpaceOnUse" />
    <linearGradient
       inkscape:collect="always"
       xlink:href="#linearGradient6742"
       id="linearGradient7268"
       x1="-39.25"
       y1="88.5"
       x2="-41"
       y2="88.5"
       gradientUnits="userSpaceOnUse" />
    <linearGradient
       inkscape:collect="always"
       xlink:href="#linearGradient6742"
       id="linearGradient7276"
       x1="-39.25"
       y1="88.5"
       x2="-41"
       y2="88.5"
       gradientUnits="userSpaceOnUse" />
    <linearGradient
       inkscape:collect="always"
       xlink:href="#linearGradient6742"
       id="linearGradient7284"
       x1="-39.25"
       y1="88.5"
       x2="-41"
       y2="88.5"
       gradientUnits="userSpaceOnUse" />
    <linearGradient
       inkscape:collect="always"
       xlink:href="#linearGradient6742"
       id="linearGradient7292"
       x1="-39.25"
       y1="88.5"
       x2="-41"
       y2="88.5"
       gradientUnits="userSpaceOnUse" />
    <linearGradient
       inkscape:collect="always"
       xlink:href="#linearGradient6742"
       id="linearGradient7300"
       x1="-39.25"
       y1="88.5"
       x2="-41"
       y2="88.5"
       gradientUnits="userSpaceOnUse" />
  </defs>
  <sodipodi:namedview
     inkscape:window-height="752"
     inkscape:window-width="1280"
     inkscape:pageshadow="2"
     inkscape:pageopacity="0.0"
     guidetolerance="10.0"
     gridtolerance="10.0"
     objecttolerance="10.0"
     borderopacity="1.0"
     bordercolor="#666666"
     pagecolor="#ffffff"
     id="base"
     showgrid="false"
     inkscape:zoom="1"
     inkscape:cx="52.474414"
     inkscape:cy="38.079708"
     inkscape:window-x="0"
     inkscape:window-y="0"
     inkscape:current-layer="svg2561"
     showguides="true"
     inkscape:guide-bbox="true" />
  <path
     style="opacity:1;fill:url(#linearGradient3520);fill-opacity:1;stroke:none"
     d="M 27.998889,76.649566 C 27.550487,75.812505 26.993685,71.513821 26.415863,64.428126 C 26.121071,60.813157 25.825115,57.452142 25.758186,56.959195 C 25.643142,56.111884 25.512844,56.062913 23.373398,56.062913 L 21.110305,56.062913 L 20.79042,61.540134 C 20.451593,67.341701 19.823855,74.907198 19.584261,76.076728 C 19.505385,76.461749 19.342532,76.776759 19.222367,76.776759 C 18.86133,76.776759 18.503473,73.390022 18.064876,65.822327 C 17.452494,55.256028 17.619174,56.132238 16.188196,55.956802 C 15.521471,55.875057 16.393323,55.775862 18.125645,55.736369 C 20.759774,55.676324 21.275316,55.564915 21.275316,55.055733 C 21.275316,51.681749 22.663746,35.705397 23.049859,34.636486 C 23.590398,33.140059 24.242801,37.47616 24.987932,47.517594 C 25.21476,50.574352 25.460928,53.657921 25.534969,54.369958 L 25.669591,55.66457 L 28.614773,55.66457 C 30.266788,55.66457 31.559958,55.501308 31.559958,55.292745 C 31.559958,54.409981 32.915196,43.637575 33.388114,40.761245 C 33.961549,37.273562 34.737097,34.6257 35.279668,34.303134 C 36.135725,33.794198 36.772442,35.21755 39.375502,43.459185 C 41.504447,50.199741 42.302756,52.32805 43.256102,53.805047 C 44.262358,55.364012 44.613714,55.66457 45.429852,55.66457 C 47.586447,55.66457 49.150918,52.479168 52.238865,41.80082 C 53.544218,37.28679 54.537968,34.734188 55.126105,34.384542 C 56.524334,33.553277 57.530105,37.661296 58.965697,50.067212 C 59.306653,53.013601 59.585601,55.478344 59.585601,55.544422 C 59.585601,55.610509 60.916178,55.66457 62.542456,55.66457 C 64.168711,55.66457 65.499288,55.56157 65.499288,55.435672 C 65.499288,54.380816 66.620462,41.199317 66.935732,38.547727 C 67.421113,34.465227 67.639851,33.699995 68.01061,34.787447 C 68.516649,36.271777 68.816574,39.449791 69.764762,53.374097 L 69.920734,55.66457 L 73.045157,55.738262 C 74.763607,55.778786 75.579426,55.876853 74.858081,55.956193 L 73.546564,56.100425 L 73.378204,60.363863 C 73.139388,66.411428 72.466746,75.041434 72.1358,76.303814 L 71.855184,77.374276 L 71.536151,75.757982 C 71.237256,74.243622 70.612856,66.699647 70.186289,59.448835 L 69.998809,56.262089 L 67.671536,56.148601 L 65.344274,56.035113 L 65.016285,60.72954 C 64.564351,67.197959 63.788179,74.08339 63.311802,75.849684 C 62.963901,77.139697 62.867381,77.251704 62.540267,76.744926 C 62.005739,75.916802 61.278489,71.186579 60.440984,63.090888 L 59.714172,56.064944 L 45.558341,56.063924 L 31.402517,56.062913 L 30.950819,60.544283 C 29.971391,70.261349 28.898861,77.175109 28.370888,77.175109 C 28.321126,77.175109 28.153729,76.938608 27.998889,76.649566 z"
     id="path2721"
     inkscape:export-filename="/Users/julietbernstein/Documents/workspace/SignalShow/guiIcons/chirp1D.png"
     inkscape:export-xdpi="90"
     inkscape:export-ydpi="90" />
  <path
     style="opacity:1;fill:url(#linearGradient3552);fill-opacity:1;stroke:none;stroke-width:0.53063065"
     d="M 22.090556,76.250054 C 21.785193,74.405053 20.828182,61.349654 20.828182,59.028948 C 20.828182,56.391009 20.725173,56.258403 18.614962,56.179932 C 17.439713,56.136221 17.113589,56.04904 17.767099,55.953285 L 18.829112,55.797661 L 18.829112,44.979765 C 18.829112,39.029924 18.884539,34.252058 18.952283,34.362291 C 19.195875,34.75858 19.582571,38.970086 19.948814,45.215505 C 20.153952,48.713598 20.387592,52.53613 20.468024,53.710034 L 20.61426,55.844413 L 22.580039,55.844413 L 24.545817,55.844413 L 24.682226,54.116583 C 24.757249,53.166279 24.997638,49.827505 25.216423,46.697096 C 25.733524,39.29828 26.233387,35.086321 26.680766,34.358424 C 26.99361,33.849496 27.090497,34.058445 27.426188,35.966525 C 27.891066,38.608776 28.37847,43.220096 28.957863,50.457657 L 29.389092,55.844413 L 32.95202,55.844413 L 36.514948,55.844413 L 37.080711,52.083848 C 37.873069,46.817149 39.157078,40.714951 39.916662,38.606222 C 41.267637,34.855725 42.588666,33.886492 46.316358,33.910952 C 51.776242,33.946767 52.68483,35.946321 55.590148,54.31986 L 55.831224,55.844413 L 59.406243,55.844413 L 62.981263,55.844413 L 63.287743,51.677297 C 63.785641,44.907807 64.766472,36.002275 65.142898,34.833447 L 65.492656,33.747381 L 65.788772,34.647566 C 66.211494,35.932633 66.708044,40.497767 67.165716,47.30691 C 67.383661,50.549141 67.622051,53.796427 67.6955,54.523136 L 67.82904,55.844413 L 69.796901,55.844413 L 71.764763,55.844413 L 71.913211,53.303488 C 73.073712,33.440785 73.242676,32.458189 73.276466,45.375822 L 73.303844,55.844413 L 74.990568,55.923143 C 76.449291,55.991238 76.339508,56.032453 74.178429,56.228056 L 71.679589,56.454232 L 71.371122,62.145899 C 70.997736,69.035348 70.352218,76.51395 70.056824,77.372714 C 69.88178,77.881558 69.788986,77.780356 69.569515,76.841252 C 69.250163,75.474666 68.708642,69.641236 68.318563,63.365545 C 68.16569,60.905928 67.982812,58.298946 67.912167,57.572236 L 67.783738,56.250961 L 65.296221,56.250961 C 63.753507,56.250961 62.808703,56.410268 62.808703,56.670396 C 62.808703,58.262578 61.46323,71.263691 61.043335,73.728924 C 60.265791,78.293862 59.87564,78.771514 59.056982,76.160736 C 58.576558,74.628649 56.965803,64.498003 56.295368,58.791884 L 55.996815,56.250961 L 46.204693,56.250961 L 36.412571,56.250961 L 35.273603,64.483548 C 34.044089,73.370559 33.173491,77.594714 32.571358,77.594714 C 31.717478,77.594714 30.855032,72.306385 29.935866,61.434445 L 29.497633,56.250961 L 27.041799,56.250961 C 24.154366,56.250961 24.523781,55.285516 23.951105,64.328321 C 23.482929,71.721186 22.950779,76.94654 22.609527,77.501727 C 22.448565,77.763609 22.269634,77.33204 22.090556,76.250054 z"
     id="path2572"
     inkscape:export-filename="/Users/julietbernstein/Documents/workspace/SignalShow/guiIcons/chirp1D.png"
     inkscape:export-xdpi="90"
     inkscape:export-ydpi="90" />
  <path
     style="fill:url(#linearGradient3962);fill-opacity:1"
     d="M 30.083065,126.58961 C 29.44116,125.13376 28.553352,119.5263 27.787024,112.08764 L 27.160678,106.00776 L 22.050348,105.93238 C 19.239666,105.89091 17.634194,105.79226 18.482632,105.71314 C 19.33107,105.63402 20.028359,105.53339 20.032163,105.48951 C 20.035967,105.44564 20.450441,101.82161 20.953216,97.436135 C 21.878754,89.363075 22.742463,84.342195 23.292594,83.836935 C 24.226707,82.979015 25.226996,88.454455 26.742027,102.71865 L 27.049026,105.60908 L 30.588663,105.60908 L 34.128299,105.60908 L 34.877976,98.657125 C 36.775548,81.060415 37.884593,79.569275 39.587931,92.324435 C 40.021937,95.574415 40.5293,99.893005 40.715404,101.92128 L 41.053774,105.60908 L 44.624254,105.60908 L 48.19473,105.60908 L 48.19473,104.54101 C 48.19473,103.95358 48.310128,102.92199 48.451172,102.2486 C 48.592215,101.57521 49.027629,98.256475 49.418756,94.873625 C 50.209511,88.034395 50.661741,85.447305 51.271819,84.272755 C 51.681181,83.484625 51.68358,83.484625 52.092941,84.272755 C 52.8729,85.774365 53.341869,88.952405 55.05024,104.31337 L 55.194345,105.60908 L 58.743434,105.60908 L 62.292526,105.60908 L 63.035554,98.627495 C 64.223375,87.466525 65.15275,82.991745 66.0525,84.101425 C 66.70233,84.902875 67.479475,89.428945 68.386358,97.693765 L 69.254772,105.60801 L 74.486247,105.68663 C 77.363554,105.72987 78.933004,105.82811 77.973894,105.90494 L 76.230072,106.04464 L 75.360161,113.90014 C 73.221335,133.21427 72.128461,132.25738 69.647433,108.89819 L 69.340434,106.00776 L 65.742882,106.00776 C 63.764228,106.00776 62.145331,106.14571 62.145331,106.31432 C 62.145331,107.66371 60.414472,121.54612 59.971572,123.74904 C 59.122217,127.97359 58.640717,128.51602 57.936641,126.04145 C 57.42922,124.25807 56.191322,115.33594 55.696387,109.89489 L 55.342803,106.00776 L 51.680999,106.00776 L 48.019194,106.00776 L 47.684908,109.80478 C 47.223859,115.04163 45.944321,124.22711 45.418247,126.07657 C 44.412937,129.61081 43.450378,126.2203 42.154219,114.57939 C 41.787992,111.29027 41.422373,108.01611 41.341734,107.30347 L 41.195116,106.00776 L 37.585482,106.00776 C 35.600183,106.00776 33.975848,106.14853 33.975848,106.32058 C 33.975848,106.49263 33.669975,109.40798 33.296131,112.79914 C 32.399636,120.93128 31.626708,125.73345 31.041417,126.80758 L 30.564819,127.68223 L 30.083065,126.58961 z"
     id="path3945"
     inkscape:export-filename="/Users/julietbernstein/Documents/workspace/SignalShow/guiIcons/sine1D.png"
     inkscape:export-xdpi="90"
     inkscape:export-ydpi="90" />
  <path
     style="fill:url(#linearGradient3954);fill-opacity:1"
     d="M 26.467772,125.75836 C 25.895026,123.7072 25.336218,119.89587 24.51123,112.4139 L 23.788294,105.85748 L 20.352083,105.64058 C 18.462167,105.52129 17.660842,105.38718 18.571362,105.34256 L 20.226853,105.26144 L 20.297441,94.234723 C 20.367121,83.349901 20.374207,83.224942 20.848138,84.524237 C 21.394657,86.022537 22.082073,90.492569 22.876138,97.711616 C 23.176629,100.44346 23.487508,103.25974 23.566979,103.97002 L 23.711477,105.26144 L 27.217992,105.25854 L 30.724502,105.25564 L 31.590992,97.336477 C 32.497002,89.056164 33.252972,84.621361 33.894182,83.825059 C 34.780212,82.72473 35.704502,87.23828 36.880302,98.406995 L 37.601902,105.26144 L 41.133902,105.26144 C 43.076502,105.26144 44.665912,105.12394 44.665912,104.95589 C 44.665912,104.78785 45.026682,101.44774 45.467632,97.533445 C 46.655552,86.98839 47.272702,83.804043 48.128472,83.804043 C 48.379412,83.804043 48.717182,84.295775 48.879062,84.896781 C 49.356262,86.668432 50.170252,92.356287 50.769862,98.108976 C 51.077392,101.05936 51.386412,103.88081 51.456592,104.37884 C 51.582552,105.27275 51.628992,105.28294 55.077582,105.17356 L 58.570972,105.06276 L 59.441612,97.314257 C 60.409362,88.701418 60.871602,85.844176 61.546632,84.302592 L 62.002532,83.261442 L 62.473232,84.131265 C 63.073222,85.239994 63.850122,90.16796 64.755152,98.605674 L 65.469042,105.26144 L 69.008872,105.26144 C 71.024952,105.26144 72.548712,105.10168 72.548712,104.89031 C 72.548712,103.98307 74.178482,90.16785 74.518982,88.188759 C 75.509542,82.43131 75.597992,82.908521 75.673182,94.416123 L 75.743812,105.22688 L 77.664802,105.36388 C 78.786112,105.44386 78.086112,105.53376 75.983262,105.57984 L 72.380722,105.6588 L 71.796582,111.32117 C 71.014082,118.90625 70.108792,124.77656 69.511032,126.14168 L 69.020712,127.26144 L 68.564082,126.41761 C 67.952412,125.28729 67.158652,120.38332 66.281352,112.31456 L 65.557682,105.6588 L 62.037212,105.6588 L 58.516732,105.6588 L 58.369812,106.75154 C 58.289002,107.35254 57.977222,110.16883 57.676972,113.00994 C 56.703082,122.22534 55.697152,127.37443 54.940412,127.01779 C 54.352892,126.74089 53.386122,121.39598 52.514512,113.60598 L 51.647552,105.85748 L 48.071902,105.74739 L 44.496242,105.63731 L 44.016582,110.5157 C 43.062402,120.22021 41.880192,127.1162 41.170692,127.1162 C 40.723892,127.1162 40.149062,125.17592 39.637982,121.94275 C 39.188752,119.10085 37.761592,106.95259 37.761592,105.97058 C 37.761592,105.7991 36.148372,105.6588 34.176652,105.6588 C 32.204942,105.6588 30.591732,105.76547 30.591732,105.89584 C 30.591732,106.76954 28.929602,120.61123 28.595092,122.52324 C 27.795322,127.0946 27.125372,128.11342 26.467772,125.75836 z"
     id="path3656"
     inkscape:export-filename="/Users/julietbernstein/Documents/workspace/SignalShow/guiIcons/sine1D.png"
     inkscape:export-xdpi="90"
     inkscape:export-ydpi="90" />
</svg>
